<mxfile host="app.diagrams.net" modified="2022-06-08T10:34:06.482Z" agent="5.0 (Windows)" etag="PS0aFY06GVqQHtgRu-be" version="19.0.2" type="github">
  <diagram name="Page-1" id="efa7a0a1-bf9b-a30e-e6df-94a7791c09e9">
    <mxGraphModel dx="1422" dy="772" grid="1" gridSize="10" guides="1" tooltips="1" connect="1" arrows="1" fold="1" page="1" pageScale="1" pageWidth="826" pageHeight="1169" background="none" math="0" shadow="0">
      <root>
        <mxCell id="0" />
        <mxCell id="1" parent="0" />
        <mxCell id="4G42Jmzgn6jyEKoW9_kl-137" style="edgeStyle=orthogonalEdgeStyle;rounded=0;orthogonalLoop=1;jettySize=auto;html=1;exitX=0;exitY=0.5;exitDx=0;exitDy=0;entryX=0.908;entryY=-0.009;entryDx=0;entryDy=0;entryPerimeter=0;fontSize=12;fontColor=#040C14;strokeColor=#3399FF;" edge="1" parent="1" source="4G42Jmzgn6jyEKoW9_kl-115" target="4G42Jmzgn6jyEKoW9_kl-131">
          <mxGeometry relative="1" as="geometry" />
        </mxCell>
        <mxCell id="4G42Jmzgn6jyEKoW9_kl-142" style="edgeStyle=orthogonalEdgeStyle;rounded=0;orthogonalLoop=1;jettySize=auto;html=1;exitX=0.5;exitY=1;exitDx=0;exitDy=0;entryX=1;entryY=0;entryDx=0;entryDy=0;fontSize=12;fontColor=#040C14;strokeColor=#FF3333;" edge="1" parent="1" source="4G42Jmzgn6jyEKoW9_kl-115" target="4G42Jmzgn6jyEKoW9_kl-141">
          <mxGeometry relative="1" as="geometry" />
        </mxCell>
        <mxCell id="4G42Jmzgn6jyEKoW9_kl-115" value="&lt;div align=&quot;center&quot;&gt;&lt;font style=&quot;font-size: 22px;&quot;&gt;Users&lt;/font&gt;&lt;/div&gt;&lt;div align=&quot;center&quot;&gt;&lt;font color=&quot;#3399FF&quot;&gt;Clients&lt;/font&gt;&lt;/div&gt;&lt;div align=&quot;center&quot;&gt;&lt;font color=&quot;#FF0000&quot;&gt;Administrators&lt;/font&gt;&lt;br&gt;&lt;/div&gt;" style="rounded=0;whiteSpace=wrap;html=1;align=center;" vertex="1" parent="1">
          <mxGeometry x="310" y="30" width="190" height="80" as="geometry" />
        </mxCell>
        <mxCell id="4G42Jmzgn6jyEKoW9_kl-140" style="edgeStyle=orthogonalEdgeStyle;rounded=0;orthogonalLoop=1;jettySize=auto;html=1;exitX=1;exitY=0;exitDx=0;exitDy=0;entryX=0;entryY=1;entryDx=0;entryDy=0;fontSize=12;fontColor=#040C14;strokeColor=#3399FF;" edge="1" parent="1" source="4G42Jmzgn6jyEKoW9_kl-131" target="4G42Jmzgn6jyEKoW9_kl-115">
          <mxGeometry relative="1" as="geometry" />
        </mxCell>
        <mxCell id="4G42Jmzgn6jyEKoW9_kl-131" value="&lt;h1 style=&quot;font-size: 18px;&quot; align=&quot;left&quot;&gt;&lt;font style=&quot;font-size: 18px;&quot;&gt;Room-client &lt;br&gt;&lt;/font&gt;&lt;/h1&gt;&lt;p style=&quot;font-size: 18px;&quot;&gt;&lt;font style=&quot;font-size: 12px;&quot;&gt;-Room number&lt;br&gt;&lt;/font&gt;&lt;/p&gt;&lt;p style=&quot;font-size: 18px;&quot;&gt;&lt;font style=&quot;font-size: 12px;&quot;&gt;-Room types&lt;/font&gt;&lt;/p&gt;&lt;p style=&quot;font-size: 18px;&quot;&gt;&lt;font style=&quot;font-size: 12px;&quot;&gt;-Room view&lt;/font&gt;&lt;/p&gt;&lt;p style=&quot;font-size: 18px;&quot;&gt;&lt;font style=&quot;font-size: 12px;&quot;&gt;-Guests (number)&lt;/font&gt;&lt;/p&gt;&lt;p style=&quot;font-size: 18px;&quot;&gt;&lt;font style=&quot;font-size: 12px; line-height: 0.2;&quot;&gt;-Price per room&lt;/font&gt;&lt;/p&gt;&lt;p style=&quot;font-size: 18px;&quot;&gt;&lt;font style=&quot;font-size: 12px; line-height: 0.2;&quot;&gt;-Period&lt;/font&gt;&lt;/p&gt;&lt;p style=&quot;font-size: 18px;&quot;&gt;&lt;font style=&quot;font-size: 12px; line-height: 0.2;&quot;&gt;-Room status&lt;br&gt;&lt;/font&gt;&lt;/p&gt;&lt;p style=&quot;font-size: 18px;&quot;&gt;&lt;font style=&quot;font-size: 12px; line-height: 0.2;&quot;&gt;&lt;br&gt;&lt;/font&gt;&lt;/p&gt;&lt;p style=&quot;font-size: 18px;&quot;&gt;&lt;font style=&quot;font-size: 12px; line-height: 0.2;&quot;&gt;-&lt;br&gt;&lt;/font&gt;&lt;/p&gt;" style="text;html=1;strokeColor=#6c8ebf;fillColor=#DAE8FC;spacing=5;spacingTop=-20;whiteSpace=wrap;overflow=hidden;rounded=0;fontSize=14;" vertex="1" parent="1">
          <mxGeometry x="130" y="220" width="120" height="320" as="geometry" />
        </mxCell>
        <mxCell id="4G42Jmzgn6jyEKoW9_kl-144" style="edgeStyle=orthogonalEdgeStyle;rounded=0;orthogonalLoop=1;jettySize=auto;html=1;entryX=0.289;entryY=1.038;entryDx=0;entryDy=0;entryPerimeter=0;fontSize=12;fontColor=#040C14;strokeColor=#FF3333;" edge="1" parent="1" source="4G42Jmzgn6jyEKoW9_kl-141" target="4G42Jmzgn6jyEKoW9_kl-115">
          <mxGeometry relative="1" as="geometry" />
        </mxCell>
        <mxCell id="4G42Jmzgn6jyEKoW9_kl-141" value="&lt;h1 style=&quot;font-size: 18px;&quot; align=&quot;left&quot;&gt;&lt;font style=&quot;font-size: 18px;&quot;&gt;Room-admin &lt;br&gt;&lt;/font&gt;&lt;/h1&gt;&lt;p style=&quot;font-size: 18px;&quot;&gt;&lt;font style=&quot;font-size: 12px;&quot;&gt;-Room number&lt;br&gt;&lt;/font&gt;&lt;/p&gt;&lt;p style=&quot;font-size: 18px;&quot;&gt;&lt;font style=&quot;font-size: 12px;&quot;&gt;-Room types&lt;/font&gt;&lt;/p&gt;&lt;p style=&quot;font-size: 18px;&quot;&gt;&lt;font style=&quot;font-size: 12px;&quot;&gt;-Room view&lt;/font&gt;&lt;/p&gt;&lt;p style=&quot;font-size: 18px;&quot;&gt;&lt;font style=&quot;font-size: 12px;&quot;&gt;-Guests (number)&lt;/font&gt;&lt;/p&gt;&lt;p style=&quot;font-size: 18px;&quot;&gt;&lt;font style=&quot;font-size: 12px; line-height: 0.2;&quot;&gt;-Price per room&lt;/font&gt;&lt;/p&gt;&lt;p style=&quot;font-size: 18px;&quot;&gt;&lt;font style=&quot;font-size: 12px; line-height: 0.2;&quot;&gt;-Period&lt;/font&gt;&lt;/p&gt;&lt;p style=&quot;font-size: 18px;&quot;&gt;&lt;font style=&quot;font-size: 12px; line-height: 0.2;&quot;&gt;-Room status&lt;br&gt;&lt;/font&gt;&lt;/p&gt;&lt;p style=&quot;font-size: 18px;&quot;&gt;&lt;font style=&quot;font-size: 12px; line-height: 0.2;&quot;&gt;&lt;br&gt;&lt;/font&gt;&lt;/p&gt;&lt;p style=&quot;font-size: 18px;&quot;&gt;&lt;font style=&quot;font-size: 12px; line-height: 0.2;&quot;&gt;-&lt;br&gt;&lt;/font&gt;&lt;/p&gt;" style="text;html=1;strokeColor=#b85450;fillColor=#f8cecc;spacing=5;spacingTop=-20;whiteSpace=wrap;overflow=hidden;rounded=0;fontSize=14;" vertex="1" parent="1">
          <mxGeometry x="400" y="220" width="120" height="320" as="geometry" />
        </mxCell>
        <mxCell id="4G42Jmzgn6jyEKoW9_kl-145" value="" style="endArrow=classic;html=1;rounded=0;fontSize=12;fontColor=#040C14;strokeColor=#3399FF;exitX=1;exitY=0.156;exitDx=0;exitDy=0;exitPerimeter=0;entryX=-0.025;entryY=0.159;entryDx=0;entryDy=0;entryPerimeter=0;" edge="1" parent="1" source="4G42Jmzgn6jyEKoW9_kl-131" target="4G42Jmzgn6jyEKoW9_kl-141">
          <mxGeometry width="50" height="50" relative="1" as="geometry">
            <mxPoint x="460" y="270" as="sourcePoint" />
            <mxPoint x="510" y="220" as="targetPoint" />
          </mxGeometry>
        </mxCell>
        <mxCell id="4G42Jmzgn6jyEKoW9_kl-146" value="" style="endArrow=classic;html=1;rounded=0;fontSize=12;fontColor=#040C14;strokeColor=#3399FF;exitX=1;exitY=0.294;exitDx=0;exitDy=0;exitPerimeter=0;entryX=-0.033;entryY=0.294;entryDx=0;entryDy=0;entryPerimeter=0;" edge="1" parent="1" source="4G42Jmzgn6jyEKoW9_kl-131" target="4G42Jmzgn6jyEKoW9_kl-141">
          <mxGeometry width="50" height="50" relative="1" as="geometry">
            <mxPoint x="460" y="270" as="sourcePoint" />
            <mxPoint x="510" y="220" as="targetPoint" />
          </mxGeometry>
        </mxCell>
        <mxCell id="4G42Jmzgn6jyEKoW9_kl-147" value="" style="endArrow=classic;html=1;rounded=0;fontSize=12;fontColor=#040C14;strokeColor=#3399FF;exitX=1;exitY=0.409;exitDx=0;exitDy=0;exitPerimeter=0;entryX=-0.017;entryY=0.409;entryDx=0;entryDy=0;entryPerimeter=0;" edge="1" parent="1" source="4G42Jmzgn6jyEKoW9_kl-131" target="4G42Jmzgn6jyEKoW9_kl-141">
          <mxGeometry width="50" height="50" relative="1" as="geometry">
            <mxPoint x="460" y="270" as="sourcePoint" />
            <mxPoint x="280" y="351" as="targetPoint" />
          </mxGeometry>
        </mxCell>
        <mxCell id="4G42Jmzgn6jyEKoW9_kl-148" value="" style="endArrow=classic;html=1;rounded=0;fontSize=12;fontColor=#040C14;strokeColor=#3399FF;exitX=1.033;exitY=0.522;exitDx=0;exitDy=0;exitPerimeter=0;entryX=-0.008;entryY=0.525;entryDx=0;entryDy=0;entryPerimeter=0;" edge="1" parent="1" source="4G42Jmzgn6jyEKoW9_kl-131" target="4G42Jmzgn6jyEKoW9_kl-141">
          <mxGeometry width="50" height="50" relative="1" as="geometry">
            <mxPoint x="460" y="270" as="sourcePoint" />
            <mxPoint x="510" y="220" as="targetPoint" />
          </mxGeometry>
        </mxCell>
        <mxCell id="4G42Jmzgn6jyEKoW9_kl-150" value="" style="endArrow=classic;html=1;rounded=0;fontSize=12;fontColor=#040C14;strokeColor=#3399FF;entryX=-0.008;entryY=0.656;entryDx=0;entryDy=0;entryPerimeter=0;" edge="1" parent="1" target="4G42Jmzgn6jyEKoW9_kl-141">
          <mxGeometry width="50" height="50" relative="1" as="geometry">
            <mxPoint x="250" y="430" as="sourcePoint" />
            <mxPoint x="280" y="380" as="targetPoint" />
          </mxGeometry>
        </mxCell>
        <mxCell id="4G42Jmzgn6jyEKoW9_kl-151" value="" style="endArrow=classic;html=1;rounded=0;fontSize=12;fontColor=#040C14;strokeColor=#3399FF;entryX=-0.033;entryY=0.781;entryDx=0;entryDy=0;entryPerimeter=0;edgeStyle=orthogonalEdgeStyle;" edge="1" parent="1" target="4G42Jmzgn6jyEKoW9_kl-141">
          <mxGeometry width="50" height="50" relative="1" as="geometry">
            <mxPoint x="240" y="470" as="sourcePoint" />
            <mxPoint x="370" y="470" as="targetPoint" />
          </mxGeometry>
        </mxCell>
        <mxCell id="4G42Jmzgn6jyEKoW9_kl-157" value="" style="endArrow=classic;html=1;rounded=0;fontSize=12;fontColor=#040C14;strokeColor=#FF3333;exitX=0;exitY=0.916;exitDx=0;exitDy=0;exitPerimeter=0;entryX=0.992;entryY=0.909;entryDx=0;entryDy=0;entryPerimeter=0;" edge="1" parent="1" source="4G42Jmzgn6jyEKoW9_kl-141" target="4G42Jmzgn6jyEKoW9_kl-131">
          <mxGeometry width="50" height="50" relative="1" as="geometry">
            <mxPoint x="460" y="330" as="sourcePoint" />
            <mxPoint x="510" y="280" as="targetPoint" />
          </mxGeometry>
        </mxCell>
        <mxCell id="4G42Jmzgn6jyEKoW9_kl-159" value="" style="curved=1;endArrow=classic;html=1;rounded=0;fontSize=12;fontColor=#040C14;strokeColor=#FF3333;entryX=1.017;entryY=0.913;entryDx=0;entryDy=0;entryPerimeter=0;exitX=1.033;exitY=0.138;exitDx=0;exitDy=0;exitPerimeter=0;" edge="1" parent="1" source="4G42Jmzgn6jyEKoW9_kl-141" target="4G42Jmzgn6jyEKoW9_kl-141">
          <mxGeometry width="50" height="50" relative="1" as="geometry">
            <mxPoint x="640" y="310" as="sourcePoint" />
            <mxPoint x="560" y="450" as="targetPoint" />
            <Array as="points">
              <mxPoint x="660" y="250" />
              <mxPoint x="660" y="380" />
              <mxPoint x="660" y="490" />
              <mxPoint x="610" y="510" />
            </Array>
          </mxGeometry>
        </mxCell>
        <mxCell id="4G42Jmzgn6jyEKoW9_kl-160" value="" style="curved=1;endArrow=classic;html=1;rounded=0;fontSize=12;fontColor=#040C14;strokeColor=#FF3333;entryX=1.025;entryY=0.931;entryDx=0;entryDy=0;entryPerimeter=0;exitX=1.042;exitY=0.288;exitDx=0;exitDy=0;exitPerimeter=0;" edge="1" parent="1" source="4G42Jmzgn6jyEKoW9_kl-141" target="4G42Jmzgn6jyEKoW9_kl-141">
          <mxGeometry width="50" height="50" relative="1" as="geometry">
            <mxPoint x="533.96" y="274.1600000000001" as="sourcePoint" />
            <mxPoint x="532.04" y="522.1600000000001" as="targetPoint" />
            <Array as="points">
              <mxPoint x="670" y="290" />
              <mxPoint x="680" y="390" />
              <mxPoint x="670" y="500" />
              <mxPoint x="620" y="520" />
            </Array>
          </mxGeometry>
        </mxCell>
        <mxCell id="4G42Jmzgn6jyEKoW9_kl-161" value="" style="curved=1;endArrow=classic;html=1;rounded=0;fontSize=12;fontColor=#040C14;strokeColor=#FF3333;entryX=1.025;entryY=0.938;entryDx=0;entryDy=0;entryPerimeter=0;exitX=1.033;exitY=0.431;exitDx=0;exitDy=0;exitPerimeter=0;" edge="1" parent="1" source="4G42Jmzgn6jyEKoW9_kl-141" target="4G42Jmzgn6jyEKoW9_kl-141">
          <mxGeometry width="50" height="50" relative="1" as="geometry">
            <mxPoint x="535.04" y="322.1600000000001" as="sourcePoint" />
            <mxPoint x="533" y="527.9200000000001" as="targetPoint" />
            <Array as="points">
              <mxPoint x="680" y="330" />
              <mxPoint x="690" y="440" />
              <mxPoint x="670" y="510" />
              <mxPoint x="630" y="530" />
            </Array>
          </mxGeometry>
        </mxCell>
        <mxCell id="4G42Jmzgn6jyEKoW9_kl-162" value="" style="curved=1;endArrow=classic;html=1;rounded=0;fontSize=12;fontColor=#040C14;strokeColor=#FF3333;exitX=1.042;exitY=0.544;exitDx=0;exitDy=0;exitPerimeter=0;" edge="1" parent="1" source="4G42Jmzgn6jyEKoW9_kl-141">
          <mxGeometry width="50" height="50" relative="1" as="geometry">
            <mxPoint x="533.96" y="367.9200000000001" as="sourcePoint" />
            <mxPoint x="525" y="520" as="targetPoint" />
            <Array as="points">
              <mxPoint x="700" y="370" />
              <mxPoint x="690" y="480" />
              <mxPoint x="680" y="520" />
              <mxPoint x="640" y="530" />
            </Array>
          </mxGeometry>
        </mxCell>
        <mxCell id="4G42Jmzgn6jyEKoW9_kl-163" value="" style="curved=1;endArrow=classic;html=1;rounded=0;fontSize=12;fontColor=#040C14;strokeColor=#FF3333;exitX=1.083;exitY=0.688;exitDx=0;exitDy=0;exitPerimeter=0;entryX=1.033;entryY=0.934;entryDx=0;entryDy=0;entryPerimeter=0;" edge="1" parent="1" source="4G42Jmzgn6jyEKoW9_kl-141" target="4G42Jmzgn6jyEKoW9_kl-141">
          <mxGeometry width="50" height="50" relative="1" as="geometry">
            <mxPoint x="535.04" y="404.0799999999999" as="sourcePoint" />
            <mxPoint x="535" y="530" as="targetPoint" />
            <Array as="points">
              <mxPoint x="710" y="420" />
              <mxPoint x="710" y="500" />
              <mxPoint x="690" y="520" />
            </Array>
          </mxGeometry>
        </mxCell>
        <mxCell id="4G42Jmzgn6jyEKoW9_kl-165" value="" style="curved=1;endArrow=classic;html=1;rounded=0;fontSize=12;fontColor=#040C14;strokeColor=#FF3333;exitX=1.025;exitY=0.8;exitDx=0;exitDy=0;exitPerimeter=0;" edge="1" parent="1" source="4G42Jmzgn6jyEKoW9_kl-141">
          <mxGeometry width="50" height="50" relative="1" as="geometry">
            <mxPoint x="539.96" y="450.15999999999985" as="sourcePoint" />
            <mxPoint x="523" y="520" as="targetPoint" />
            <Array as="points">
              <mxPoint x="720" y="460" />
              <mxPoint x="720" y="510" />
              <mxPoint x="690" y="530" />
            </Array>
          </mxGeometry>
        </mxCell>
        <mxCell id="4G42Jmzgn6jyEKoW9_kl-166" value="" style="curved=1;endArrow=classic;html=1;rounded=0;fontSize=12;fontColor=#040C14;strokeColor=#3399FF;entryX=0;entryY=0.178;entryDx=0;entryDy=0;entryPerimeter=0;" edge="1" parent="1" target="4G42Jmzgn6jyEKoW9_kl-131">
          <mxGeometry width="50" height="50" relative="1" as="geometry">
            <mxPoint x="120" y="520" as="sourcePoint" />
            <mxPoint x="510" y="280" as="targetPoint" />
            <Array as="points">
              <mxPoint x="100" y="510" />
              <mxPoint x="60" y="510" />
              <mxPoint x="50" y="500" />
              <mxPoint x="50" y="490" />
              <mxPoint x="20" y="460" />
              <mxPoint x="20" y="270" />
            </Array>
          </mxGeometry>
        </mxCell>
        <mxCell id="4G42Jmzgn6jyEKoW9_kl-167" value="" style="curved=1;endArrow=classic;html=1;rounded=0;fontSize=12;fontColor=#040C14;strokeColor=#3399FF;exitX=-0.042;exitY=0.9;exitDx=0;exitDy=0;exitPerimeter=0;entryX=-0.033;entryY=0.294;entryDx=0;entryDy=0;entryPerimeter=0;" edge="1" parent="1" target="4G42Jmzgn6jyEKoW9_kl-131">
          <mxGeometry width="50" height="50" relative="1" as="geometry">
            <mxPoint x="124.96000000000004" y="518" as="sourcePoint" />
            <mxPoint x="110" y="280" as="targetPoint" />
            <Array as="points">
              <mxPoint x="110" y="520" />
              <mxPoint x="100" y="520" />
              <mxPoint x="50" y="500" />
              <mxPoint x="30" y="470" />
              <mxPoint x="30" y="310" />
              <mxPoint x="70" y="314" />
            </Array>
          </mxGeometry>
        </mxCell>
        <mxCell id="4G42Jmzgn6jyEKoW9_kl-168" value="" style="curved=1;endArrow=classic;html=1;rounded=0;fontSize=12;fontColor=#040C14;strokeColor=#3399FF;entryX=-0.033;entryY=0.413;entryDx=0;entryDy=0;entryPerimeter=0;" edge="1" parent="1" target="4G42Jmzgn6jyEKoW9_kl-131">
          <mxGeometry width="50" height="50" relative="1" as="geometry">
            <mxPoint x="110" y="530" as="sourcePoint" />
            <mxPoint x="126.03999999999996" y="324.0799999999999" as="targetPoint" />
            <Array as="points">
              <mxPoint x="120" y="530" />
              <mxPoint x="30" y="490" />
              <mxPoint x="30" y="350" />
              <mxPoint x="70" y="350" />
            </Array>
          </mxGeometry>
        </mxCell>
        <mxCell id="4G42Jmzgn6jyEKoW9_kl-170" value="" style="curved=1;endArrow=classic;html=1;rounded=0;fontSize=12;fontColor=#040C14;strokeColor=#3399FF;entryX=-0.033;entryY=0.528;entryDx=0;entryDy=0;entryPerimeter=0;" edge="1" parent="1" target="4G42Jmzgn6jyEKoW9_kl-131">
          <mxGeometry width="50" height="50" relative="1" as="geometry">
            <mxPoint x="116" y="520" as="sourcePoint" />
            <mxPoint x="100" y="390" as="targetPoint" />
            <Array as="points">
              <mxPoint x="120" y="530" />
              <mxPoint x="30" y="500" />
              <mxPoint x="30" y="380" />
            </Array>
          </mxGeometry>
        </mxCell>
        <mxCell id="4G42Jmzgn6jyEKoW9_kl-172" value="" style="curved=1;endArrow=classic;html=1;rounded=0;fontSize=12;fontColor=#040C14;strokeColor=#3399FF;" edge="1" parent="1">
          <mxGeometry width="50" height="50" relative="1" as="geometry">
            <mxPoint x="110" y="520" as="sourcePoint" />
            <mxPoint x="110" y="430" as="targetPoint" />
            <Array as="points">
              <mxPoint x="120" y="520" />
              <mxPoint x="40" y="500" />
              <mxPoint x="40" y="420" />
            </Array>
          </mxGeometry>
        </mxCell>
        <mxCell id="4G42Jmzgn6jyEKoW9_kl-174" value="" style="curved=1;endArrow=classic;html=1;rounded=0;fontSize=12;fontColor=#040C14;strokeColor=#3399FF;entryX=-0.008;entryY=0.772;entryDx=0;entryDy=0;entryPerimeter=0;" edge="1" parent="1" target="4G42Jmzgn6jyEKoW9_kl-131">
          <mxGeometry width="50" height="50" relative="1" as="geometry">
            <mxPoint x="120" y="530" as="sourcePoint" />
            <mxPoint x="120" y="440" as="targetPoint" />
            <Array as="points">
              <mxPoint x="130" y="530" />
              <mxPoint x="50" y="510" />
              <mxPoint x="129" y="520" />
              <mxPoint x="60" y="520" />
              <mxPoint x="60" y="460" />
              <mxPoint x="90" y="467" />
            </Array>
          </mxGeometry>
        </mxCell>
      </root>
    </mxGraphModel>
  </diagram>
</mxfile>
